# xmcd
#
# Track frame offsets:
# 150
# 10138
# 20743
# 30745
# 41965
# 54983
# 65695
# 82365
# 92354
# 108178
# 122502
# 135751
# 149999
# 162787
# 174832
# 187363
# 220952
# 232679
#
# Disc length: 3238 seconds
#
#
# Revision: 2
# Processed by: cddbd v1.4PL0 Copyright (c) Steve Scherf et al.
# Submitted via: FreeRIP 2.11 
#
DISCID=f70ca412
DTITLE=Buddy Guy - Stone Crazy (The Blues Collection Vol. 4)
DYEAR=1900
DGENRE=
TTITLE0=First time I met the Blues
TTITLE1=I got my eyes on you 
TTITLE2=Slop around
TTITLE3=Watch yourself
TTITLE4=When my left eye jumps
TTITLE5=Hard but it's fair
TTITLE6=Every girl I see
TTITLE7=Baby (Baby,Baby,baby) 
TTITLE8=Leave my girl alone
TTITLE9=Hully gully
TTITLE10=Let me love you baby
TTITLE11=I got a strange feeling
TTITLE12=I suffer with the Blues
TTITLE13=Ten years ago
TTITLE14=Mother-in-law Blues 
TTITLE15=Stone crazy
TTITLE16=No lie
TTITLE17=$100 Bill
EXTD=It was in 1991 that Buddy Guy eventually received the accolades that he deserved when artists like Eric Clapton, Jeff Beck and Mark Knopfler gave him their support. Yet Stone Crazy which concentrates on his work in the 1960's is ample evidence that 
EXTD=Guy se
EXTT0=
EXTT1=
EXTT2=
EXTT3=
EXTT4=
EXTT5=
EXTT6=
EXTT7=
EXTT8=
EXTT9=
EXTT10=
EXTT11=
EXTT12=
EXTT13=
EXTT14=
EXTT15=
EXTT16=
EXTT17=
PLAYORDER=
